<svg xmlns="http://www.w3.org/2000/svg" xmlns:xlink="http://www.w3.org/1999/xlink" zoomAndPan="magnify" viewBox="0 0 156 111.749996" preserveAspectRatio="xMidYMid meet" version="1.0"><defs><clipPath id="e700efe7fd"><path d="M 0.175781 0 L 155.824219 0 L 155.824219 111 L 0.175781 111 Z M 0.175781 0 " clip-rule="nonzero"/></clipPath></defs><g clip-path="url(#e700efe7fd)"><path fill="#6694ee" d="M 90.597656 0.0898438 C 89.515625 0.246094 88.355469 0.53125 86.921875 0.996094 C 86.484375 1.140625 85.585938 1.378906 84.9375 1.523438 C 78.734375 2.914062 74.578125 4.828125 72.472656 7.277344 C 71.503906 8.40625 70.875 9.667969 70.601562 11.027344 C 70.1875 13.074219 70.414062 15.550781 71.535156 21.339844 C 72.382812 25.703125 72.929688 27.933594 73.699219 30.128906 C 74.996094 33.8125 76.363281 36.257812 78.363281 38.441406 C 79.925781 40.148438 82.316406 42 85.039062 43.625 C 87.867188 45.308594 91.167969 46.855469 94.394531 48.003906 C 94.980469 48.210938 95.460938 48.398438 95.460938 48.410156 C 95.460938 48.425781 95.273438 48.566406 95.042969 48.71875 C 94.53125 49.0625 93.582031 49.996094 93.359375 50.378906 C 93.007812 50.980469 92.945312 51.199219 92.945312 51.832031 C 92.945312 52.378906 92.949219 52.421875 93.097656 52.734375 C 93.320312 53.191406 93.710938 53.578125 94.226562 53.820312 C 95.113281 54.246094 96.261719 54.304688 98.097656 54.007812 L 98.691406 53.910156 L 98.953125 54.214844 C 99.289062 54.601562 99.964844 55.242188 100.539062 55.722656 L 100.996094 56.101562 L 101.242188 56.742188 C 101.515625 57.441406 101.757812 58.171875 102.359375 60.167969 C 102.574219 60.878906 102.925781 61.976562 103.132812 62.601562 C 103.34375 63.230469 103.511719 63.769531 103.511719 63.800781 C 103.511719 63.890625 101.125 65.34375 100.300781 65.757812 C 99.527344 66.152344 98.957031 66.34375 98.859375 66.242188 C 98.78125 66.167969 98.921875 65.667969 99.140625 65.25 C 99.410156 64.734375 99.917969 64.09375 100.871094 63.066406 C 101.402344 62.496094 101.785156 62.042969 101.855469 61.898438 C 102.160156 61.292969 101.851562 60.71875 101.230469 60.71875 C 100.910156 60.71875 100.347656 60.996094 99.101562 61.773438 C 97.503906 62.765625 96.324219 63.292969 96.109375 63.113281 C 95.992188 63.019531 96.03125 62.484375 96.179688 62.0625 C 96.542969 61.015625 97.363281 59.722656 98.597656 58.226562 C 99.226562 57.472656 99.550781 56.996094 99.878906 56.371094 C 100.078125 55.984375 100.113281 55.886719 100.097656 55.695312 C 100.085938 55.496094 100.070312 55.472656 99.960938 55.460938 C 99.761719 55.433594 99.550781 55.546875 99.007812 55.957031 C 97.367188 57.1875 95.390625 59.867188 94.757812 61.710938 C 94.585938 62.203125 94.574219 62.257812 94.574219 62.851562 C 94.574219 63.425781 94.585938 63.492188 94.703125 63.746094 C 94.871094 64.113281 95.199219 64.421875 95.546875 64.550781 C 95.78125 64.644531 95.886719 64.652344 96.300781 64.632812 C 96.816406 64.609375 97.203125 64.5 97.746094 64.222656 C 97.910156 64.140625 98.066406 64.074219 98.097656 64.074219 C 98.121094 64.074219 98.0625 64.199219 97.964844 64.347656 C 97.203125 65.539062 97.125 66.804688 97.769531 67.40625 C 97.855469 67.492188 98.023438 67.609375 98.144531 67.671875 C 98.335938 67.773438 98.421875 67.785156 98.933594 67.785156 C 99.433594 67.78125 99.558594 67.765625 99.875 67.65625 C 100.648438 67.382812 101.335938 67.011719 102.945312 65.984375 C 103.519531 65.617188 104.003906 65.320312 104.027344 65.320312 C 104.066406 65.320312 104.242188 65.914062 104.527344 67.011719 C 104.628906 67.421875 104.628906 67.4375 104.542969 67.5 C 104.273438 67.703125 103.3125 68.601562 103.058594 68.898438 C 102.625 69.402344 102.492188 69.667969 102.464844 70.09375 C 102.445312 70.402344 102.460938 70.472656 102.570312 70.703125 C 102.898438 71.371094 103.523438 71.589844 105.164062 71.625 L 106.121094 71.644531 L 106.1875 71.765625 C 106.285156 71.957031 106.3125 72.417969 106.234375 72.5625 C 106.136719 72.753906 105.867188 72.945312 104.972656 73.476562 C 103.523438 74.332031 102.929688 74.765625 102.125 75.546875 C 99.902344 77.707031 99.457031 80.183594 100.996094 81.835938 C 101.792969 82.699219 103.160156 83.285156 104.828125 83.476562 C 105.382812 83.539062 106.90625 83.539062 107.539062 83.476562 C 110.460938 83.183594 113.101562 82.195312 115.476562 80.519531 C 116.105469 80.074219 116.59375 79.65625 117.25 79.011719 C 118.226562 78.042969 118.886719 77.167969 119.335938 76.230469 C 119.472656 75.945312 119.59375 75.714844 119.605469 75.714844 C 119.621094 75.71875 119.855469 76.054688 120.132812 76.472656 C 121.648438 78.738281 123.261719 80.8125 124.546875 82.152344 C 125.644531 83.296875 127.039062 84.433594 128.351562 85.25 C 128.703125 85.46875 128.988281 85.65625 128.976562 85.664062 C 128.96875 85.675781 128.414062 85.738281 127.746094 85.804688 C 119.65625 86.582031 112.835938 88.4375 107.664062 91.277344 C 105.679688 92.363281 103.84375 93.59375 102.433594 94.773438 C 101.746094 95.347656 100.367188 96.761719 99.824219 97.441406 C 99.550781 97.78125 99.3125 98.082031 99.292969 98.101562 C 99.273438 98.125 98.96875 98 98.617188 97.828125 C 97.824219 97.441406 97.222656 97.222656 96.300781 96.984375 C 94.613281 96.554688 92.800781 96.363281 90.390625 96.363281 C 87.710938 96.363281 86.113281 96.515625 80.441406 97.320312 C 75.390625 98.035156 74.664062 98.105469 72.585938 98.113281 C 71.742188 98.113281 70.949219 98.09375 70.832031 98.074219 L 70.617188 98.035156 L 70.609375 97.449219 C 70.609375 96.957031 70.585938 96.808594 70.480469 96.476562 C 70.121094 95.367188 69.234375 94.648438 68.023438 94.488281 C 66.914062 94.347656 65.808594 94.867188 65.378906 95.75 C 64.714844 97.101562 65.554688 98.554688 67.492188 99.386719 C 67.78125 99.511719 68.019531 99.625 68.023438 99.640625 C 68.070312 99.773438 66.597656 101.234375 65.566406 102.078125 C 63.035156 104.144531 59.445312 106.203125 56.472656 107.285156 C 53.960938 108.203125 51.683594 108.691406 48.871094 108.925781 C 47.816406 109.011719 45.066406 108.996094 43.816406 108.894531 C 41.234375 108.695312 38.636719 108.355469 34.570312 107.695312 C 31.753906 107.234375 30.359375 107.03125 28.804688 106.855469 C 28.117188 106.777344 27.445312 106.679688 27.3125 106.640625 C 26.871094 106.496094 26.167969 106.382812 24.839844 106.234375 C 23.347656 106.066406 22.539062 105.953125 22.503906 105.921875 C 22.492188 105.90625 22.5 105.878906 22.523438 105.855469 C 22.789062 105.625 23.558594 105.011719 24.339844 104.414062 C 26.386719 102.839844 27.558594 101.867188 28.550781 100.910156 C 30.222656 99.308594 31.261719 97.800781 32.054688 95.832031 C 32.171875 95.53125 32.292969 95.234375 32.324219 95.171875 L 32.371094 95.054688 L 32.570312 95.246094 C 33.3125 95.953125 34.625 96.785156 35.933594 97.378906 C 38.8125 98.695312 42.210938 99.332031 46.359375 99.332031 C 49.128906 99.332031 50.890625 99.023438 52.03125 98.34375 C 52.386719 98.125 52.871094 97.671875 53.0625 97.371094 C 53.851562 96.136719 53.445312 94.242188 52.03125 92.53125 C 51.117188 91.429688 49.867188 90.523438 48.347656 89.863281 C 47.8125 89.632812 47.390625 89.488281 45.15625 88.773438 C 44.355469 88.515625 43.71875 88.253906 43.71875 88.179688 C 43.71875 88.160156 44.015625 88.109375 44.382812 88.066406 C 45.738281 87.898438 46.78125 87.523438 47.351562 86.996094 C 48.191406 86.222656 48.101562 85.082031 47.132812 84.183594 C 46.773438 83.855469 46.070312 83.414062 45.410156 83.105469 C 45.066406 82.949219 44.917969 82.851562 44.917969 82.796875 C 44.917969 82.652344 45.210938 81.296875 45.25 81.257812 C 45.296875 81.210938 46.015625 81.503906 47.265625 82.074219 C 49.019531 82.878906 49.742188 83.105469 50.570312 83.105469 C 51.390625 83.113281 52.015625 82.742188 52.324219 82.078125 C 52.453125 81.792969 52.464844 81.738281 52.457031 81.175781 C 52.457031 80.652344 52.4375 80.523438 52.324219 80.171875 C 52.191406 79.769531 51.898438 79.148438 51.644531 78.738281 C 51.566406 78.613281 51.542969 78.535156 51.582031 78.550781 C 51.621094 78.570312 51.878906 78.679688 52.160156 78.796875 C 53.015625 79.160156 53.335938 79.234375 54.019531 79.234375 C 54.59375 79.234375 54.632812 79.230469 54.933594 79.085938 C 55.34375 78.890625 55.597656 78.660156 55.777344 78.316406 C 56.320312 77.296875 55.933594 76.035156 54.691406 74.742188 C 53.839844 73.851562 52.878906 73.195312 50.953125 72.167969 C 50.222656 71.777344 49.242188 71.183594 48.96875 70.957031 L 48.832031 70.84375 L 49.128906 70.488281 C 49.507812 70.042969 49.855469 69.472656 50.054688 69.003906 L 50.203125 68.632812 L 50.972656 68.605469 C 51.914062 68.5625 52.773438 68.460938 53.25 68.332031 C 55.394531 67.753906 55.835938 65.816406 54.203125 64.160156 C 53.8125 63.769531 53.410156 63.460938 52.867188 63.140625 L 52.429688 62.878906 L 52.828125 62.621094 C 53.46875 62.210938 54.375 61.695312 55.886719 60.886719 C 58.390625 59.550781 59.710938 58.753906 60.84375 57.90625 C 62.179688 56.902344 63.277344 55.824219 64.164062 54.648438 C 65.699219 52.605469 66.730469 50.117188 67.40625 46.800781 C 67.785156 44.941406 68.09375 42.472656 68.726562 36.382812 C 69.371094 30.128906 69.476562 28.53125 69.433594 25.257812 C 69.410156 23.183594 69.359375 22.46875 69.160156 21.289062 C 68.976562 20.207031 68.617188 19.265625 68.132812 18.621094 C 67.832031 18.21875 67.191406 17.621094 66.738281 17.324219 C 66.265625 17.007812 65.082031 16.421875 64.441406 16.183594 C 61.589844 15.132812 57.523438 14.363281 52.917969 14 C 51.832031 13.914062 47.609375 13.914062 46.738281 14 C 45.476562 14.125 44.730469 14.316406 44.246094 14.640625 C 43.734375 14.980469 43.488281 15.488281 43.574219 16.039062 L 43.609375 16.265625 L 43.242188 16.523438 C 41.890625 17.46875 40.601562 19.195312 39.511719 21.519531 C 38.863281 22.90625 38.378906 24.265625 37.078125 28.308594 C 35.300781 33.871094 34.308594 37.214844 34.011719 38.699219 C 33.914062 39.1875 33.882812 39.472656 33.882812 39.976562 C 33.878906 40.558594 33.894531 40.660156 34.011719 41.003906 C 34.179688 41.492188 34.492188 41.957031 34.890625 42.316406 L 35.210938 42.605469 L 35.039062 42.980469 C 34.65625 43.804688 34.519531 44.511719 34.519531 45.714844 C 34.519531 49.050781 35.734375 52.441406 37.945312 55.28125 C 38.699219 56.25 39.464844 57.089844 40.917969 58.539062 C 41.738281 59.355469 42.542969 60.207031 42.707031 60.433594 C 43 60.820312 43.296875 61.367188 43.359375 61.632812 L 43.394531 61.765625 L 42.847656 61.792969 C 42.550781 61.808594 41.382812 61.839844 40.246094 61.871094 C 37.910156 61.925781 37.175781 61.96875 35.382812 62.136719 C 31.425781 62.507812 27.589844 63.105469 25.710938 63.648438 C 23.3125 64.335938 21.652344 65.5 20.257812 67.472656 C 19.496094 68.550781 18.691406 70.082031 18.097656 71.585938 C 17.90625 72.0625 17.332031 73.703125 16.824219 75.222656 C 14.949219 80.796875 13.929688 83.429688 12.632812 86 C 11.308594 88.625 9.566406 91.332031 7.671875 93.699219 C 6.613281 95.023438 5.890625 95.832031 3.8125 98.039062 C 1.34375 100.65625 0.769531 101.335938 0.5 101.949219 C 0.195312 102.632812 0.59375 103.308594 1.292969 103.308594 C 1.636719 103.308594 1.992188 103.1875 2.582031 102.855469 C 3.035156 102.601562 3.363281 102.398438 5.726562 100.929688 C 9.480469 98.597656 11.535156 97.636719 14.222656 96.960938 C 15.867188 96.550781 17.039062 96.367188 19.695312 96.125 C 22.3125 95.878906 23.074219 95.773438 24.195312 95.476562 C 26.664062 94.835938 28.105469 93.675781 29.851562 90.933594 C 31.429688 88.457031 31.753906 88.070312 32.632812 87.566406 C 32.917969 87.410156 33.46875 87.195312 33.5 87.230469 C 33.53125 87.257812 32.890625 88.742188 32.820312 88.808594 C 32.792969 88.84375 32.621094 88.953125 32.445312 89.050781 C 31.757812 89.453125 31.246094 89.988281 30.980469 90.570312 C 30.773438 91.027344 30.722656 91.335938 30.746094 91.9375 C 30.765625 92.363281 30.792969 92.539062 30.917969 92.90625 C 31.003906 93.148438 31.070312 93.386719 31.070312 93.4375 C 31.070312 93.5625 30.535156 95.121094 30.277344 95.753906 C 29.640625 97.3125 28.824219 98.515625 27.503906 99.839844 C 26.449219 100.902344 25.328125 101.800781 22.925781 103.527344 C 21.074219 104.859375 20.585938 105.277344 20.339844 105.75 C 20.023438 106.371094 20.230469 107.023438 20.875 107.441406 C 21.011719 107.527344 21.179688 107.636719 21.246094 107.683594 C 21.566406 107.898438 23.132812 108.257812 24.125 108.339844 C 24.457031 108.363281 25.25 108.421875 25.898438 108.460938 C 28.527344 108.628906 30.027344 108.828125 34.878906 109.652344 C 42.550781 110.960938 47.179688 111.21875 51.480469 110.59375 C 53.617188 110.277344 56.296875 109.539062 58.308594 108.699219 C 60.707031 107.703125 63.453125 106.109375 65.53125 104.503906 C 67.15625 103.242188 68.828125 101.542969 69.585938 100.367188 L 69.800781 100.042969 L 70.089844 100.078125 C 70.941406 100.171875 71.351562 100.191406 72.488281 100.195312 C 74.648438 100.195312 75.867188 100.0625 81.757812 99.171875 C 85.953125 98.539062 87.464844 98.378906 89.878906 98.34375 C 93.320312 98.285156 95.726562 98.613281 97.625 99.414062 C 97.910156 99.53125 98.160156 99.65625 98.1875 99.6875 C 98.226562 99.734375 98.167969 99.902344 97.957031 100.34375 C 97.617188 101.054688 97.378906 101.730469 97.222656 102.410156 C 97.066406 103.117188 97.066406 104.21875 97.222656 104.769531 C 97.457031 105.585938 97.929688 106.195312 98.566406 106.511719 C 98.914062 106.683594 98.949219 106.6875 99.433594 106.6875 C 99.816406 106.6875 100 106.664062 100.179688 106.597656 C 101.523438 106.085938 102.375 104.574219 102.296875 102.855469 C 102.246094 101.695312 101.78125 100.546875 101.015625 99.660156 C 100.882812 99.511719 100.777344 99.367188 100.777344 99.339844 C 100.777344 99.257812 101.636719 98.238281 102.164062 97.691406 C 103.203125 96.613281 104.316406 95.707031 105.808594 94.710938 C 108.511719 92.914062 111.097656 91.660156 114.3125 90.585938 C 118.460938 89.207031 122.078125 88.507812 129.308594 87.691406 C 131.617188 87.433594 131.863281 87.398438 132.226562 87.28125 C 132.507812 87.183594 132.839844 86.871094 132.925781 86.613281 C 133.066406 86.191406 132.878906 85.707031 132.46875 85.433594 C 132.363281 85.363281 131.972656 85.171875 131.59375 85.007812 C 130.539062 84.542969 129.347656 83.839844 128.300781 83.054688 C 126.417969 81.640625 124.820312 79.921875 122.855469 77.199219 C 121.484375 75.296875 119.972656 72.941406 119.722656 72.308594 C 119.527344 71.824219 119.210938 71.3125 118.871094 70.9375 C 118.652344 70.699219 117.714844 69.253906 117.753906 69.21875 C 117.785156 69.183594 118.601562 69.714844 119.097656 70.09375 C 119.699219 70.550781 120.34375 71.085938 121.886719 72.410156 C 123.167969 73.507812 123.785156 74.003906 124.589844 74.574219 C 126.542969 75.96875 128.390625 76.664062 130.480469 76.796875 C 131.132812 76.835938 132.285156 76.753906 133.941406 76.554688 C 136.246094 76.269531 137.363281 76.238281 138.960938 76.414062 C 139.921875 76.519531 140.773438 76.679688 142.957031 77.152344 C 146.46875 77.914062 148.628906 78.257812 150.890625 78.425781 C 151.226562 78.449219 151.441406 78.5 151.699219 78.597656 C 152.402344 78.882812 152.914062 78.980469 153.621094 78.992188 C 154.328125 78.996094 154.503906 78.957031 154.867188 78.726562 C 155.273438 78.46875 155.441406 78.042969 155.261719 77.746094 C 155.183594 77.625 155.070312 77.558594 154.695312 77.414062 C 153.628906 77.007812 152.792969 76.667969 152.21875 76.410156 C 150.800781 75.773438 148.367188 74.277344 146.320312 72.792969 C 145.875 72.472656 145.632812 72.25 145.394531 71.96875 C 145.167969 71.691406 144.886719 71.441406 144.40625 71.078125 C 140.644531 68.253906 138.148438 65.730469 136.414062 62.984375 C 135.148438 60.988281 134.382812 59.480469 132.734375 55.730469 C 131.214844 52.28125 130.570312 51.03125 129.558594 49.609375 C 127.339844 46.492188 124.59375 44.640625 120.832031 43.734375 C 118.175781 43.09375 115.554688 43.03125 112.277344 43.523438 C 111.007812 43.714844 108.210938 44.304688 105.714844 44.90625 C 105.386719 44.980469 105.109375 45.039062 105.101562 45.03125 C 105.085938 45.019531 105.277344 44.703125 105.515625 44.335938 C 107.039062 42 108.320312 39.238281 109.15625 36.464844 C 109.738281 34.554688 110.023438 33.109375 110.261719 30.894531 C 110.71875 26.675781 110.546875 25.046875 109.511719 23.804688 L 109.234375 23.46875 L 109.269531 23.085938 C 109.3125 22.617188 109.238281 21.765625 109.109375 21.15625 C 108.746094 19.46875 107.566406 17.085938 104.167969 11.132812 C 102.574219 8.355469 101.238281 6.242188 100.160156 4.808594 C 98.019531 1.96875 96.140625 0.59375 93.761719 0.132812 C 93.214844 0.0273438 91.234375 0 90.597656 0.0898438 Z M 94.246094 1.769531 C 96.566406 2.4375 98.710938 4.640625 101.378906 9.09375 C 102.3125 10.660156 103.972656 13.660156 105.550781 16.644531 C 106.699219 18.824219 107.371094 20.371094 107.601562 21.386719 C 107.6875 21.75 107.785156 22.53125 107.75 22.585938 C 107.734375 22.609375 107.558594 22.570312 107.355469 22.503906 C 104.554688 21.613281 99.0625 21.675781 93.847656 22.65625 C 88.875 23.59375 83.914062 25.195312 80.179688 27.070312 C 78.332031 27.992188 77.070312 28.800781 76.363281 29.503906 C 75.871094 29.996094 75.792969 30.160156 75.792969 30.667969 C 75.792969 31.019531 75.808594 31.074219 75.9375 31.253906 C 76.210938 31.640625 76.644531 31.859375 77.359375 31.984375 C 77.820312 32.066406 84.902344 32.058594 86.621094 31.980469 C 91.6875 31.738281 96.152344 31.054688 100.203125 29.890625 C 102.269531 29.296875 103.480469 28.847656 104.921875 28.140625 C 106.53125 27.351562 107.695312 26.464844 108.402344 25.488281 C 108.488281 25.363281 108.574219 25.28125 108.597656 25.304688 C 108.617188 25.324219 108.683594 25.515625 108.742188 25.722656 C 108.835938 26.078125 108.847656 26.207031 108.847656 27.398438 C 108.847656 28.746094 108.8125 29.152344 108.511719 31.542969 C 108.285156 33.328125 108.007812 34.667969 107.511719 36.324219 C 106.734375 38.929688 105.511719 41.566406 104.117188 43.664062 C 103.703125 44.285156 102.746094 45.617188 102.691406 45.652344 C 102.667969 45.667969 102.296875 45.777344 101.871094 45.898438 C 100.160156 46.367188 98.667969 46.867188 97.574219 47.339844 C 96.976562 47.597656 97.21875 47.636719 95.390625 46.972656 C 92.816406 46.039062 91.296875 45.394531 89.234375 44.363281 C 84.316406 41.90625 80.738281 39.199219 78.515625 36.261719 C 76.746094 33.925781 75.117188 30.164062 74.171875 26.226562 C 73.390625 23 72.308594 16.847656 72.078125 14.378906 C 71.996094 13.472656 72.042969 11.820312 72.171875 11.21875 C 72.460938 9.886719 73.019531 8.886719 74.042969 7.875 C 74.863281 7.050781 75.878906 6.332031 77.015625 5.769531 C 77.5 5.527344 77.476562 5.5625 76.871094 5.960938 C 74.941406 7.242188 73.59375 8.511719 73.296875 9.347656 C 73.078125 9.964844 73.390625 10.621094 73.996094 10.824219 C 74.390625 10.953125 75.179688 10.898438 76.035156 10.683594 C 78.964844 9.949219 84.15625 8.109375 87.507812 6.617188 C 90.335938 5.359375 92.4375 3.984375 93.105469 2.964844 C 93.378906 2.546875 93.464844 2.035156 93.324219 1.675781 C 93.289062 1.589844 93.304688 1.585938 93.554688 1.613281 C 93.699219 1.632812 94.007812 1.699219 94.246094 1.769531 Z M 91.660156 2.242188 C 91.761719 2.34375 90.75 3.128906 89.71875 3.75 C 87.714844 4.953125 83.902344 6.566406 79.699219 7.996094 C 77.695312 8.675781 75.101562 9.421875 75.023438 9.347656 C 74.976562 9.300781 76.109375 8.273438 76.695312 7.832031 C 79.183594 5.980469 82.394531 4.25 85.625 3.042969 C 86.601562 2.671875 87.753906 2.441406 89.542969 2.246094 C 90.207031 2.175781 91.59375 2.171875 91.660156 2.242188 Z M 52.550781 16.644531 C 54.269531 16.75 56.390625 17.007812 58.09375 17.320312 C 61.425781 17.933594 63.9375 18.878906 65.023438 19.929688 C 65.445312 20.34375 65.46875 20.4375 65.167969 20.570312 C 64.660156 20.796875 64.367188 20.835938 63.050781 20.832031 C 61.660156 20.832031 60.867188 20.753906 59.070312 20.453125 C 55.886719 19.914062 52.703125 19.101562 50.042969 18.128906 C 48.582031 17.597656 47.121094 16.960938 47.199219 16.882812 C 47.25 16.832031 48.121094 16.699219 48.773438 16.648438 C 49.476562 16.589844 51.601562 16.585938 52.550781 16.644531 Z M 45.386719 17.945312 C 47.355469 19.085938 51.007812 20.359375 54.929688 21.28125 C 58.984375 22.234375 62.558594 22.734375 64.292969 22.589844 C 65.5 22.488281 66.285156 22.199219 66.773438 21.683594 C 66.914062 21.53125 67.066406 21.359375 67.105469 21.289062 L 67.183594 21.171875 L 67.238281 21.363281 C 67.308594 21.617188 67.46875 22.585938 67.53125 23.183594 C 67.558594 23.445312 67.597656 24.300781 67.613281 25.074219 C 67.65625 27.3125 67.527344 29.359375 67.128906 32.882812 C 66.496094 38.417969 66.082031 41.96875 66.0625 42.027344 C 66.054688 42.070312 65.957031 42.03125 65.773438 41.902344 C 63.871094 40.613281 59.90625 39.628906 55.027344 39.230469 C 53.472656 39.109375 52.46875 39.066406 50.355469 39.035156 C 43.941406 38.941406 39.0625 39.640625 36.859375 40.964844 L 36.433594 41.226562 L 36.273438 41.125 C 36.035156 40.980469 35.738281 40.636719 35.671875 40.429688 C 35.511719 39.957031 35.703125 38.910156 36.34375 36.765625 C 37.386719 33.242188 39.710938 25.78125 40.09375 24.714844 C 40.875 22.558594 41.617188 21.0625 42.546875 19.773438 C 43.011719 19.125 43.828125 18.316406 44.386719 17.945312 C 44.636719 17.785156 44.84375 17.648438 44.855469 17.648438 C 44.863281 17.648438 45.097656 17.785156 45.386719 17.945312 Z M 103.75 23.542969 C 105.484375 23.660156 107.496094 24.09375 107.363281 24.320312 C 106.878906 25.140625 105.945312 25.933594 104.660156 26.605469 C 101.429688 28.285156 95.488281 29.695312 89.519531 30.195312 C 87.183594 30.394531 86.414062 30.417969 82.085938 30.417969 C 78.984375 30.417969 77.867188 30.402344 77.832031 30.363281 C 77.757812 30.292969 78.0625 30.046875 78.8125 29.554688 C 82.464844 27.15625 89.152344 24.902344 95.390625 23.976562 C 96.890625 23.753906 97.84375 23.65625 99.773438 23.527344 C 100.328125 23.488281 103.132812 23.5 103.75 23.542969 Z M 52.917969 40.886719 C 58.199219 41.082031 62.453125 41.921875 64.425781 43.152344 C 64.792969 43.382812 65.183594 43.75 65.183594 43.875 C 65.183594 43.910156 65.101562 44.015625 64.996094 44.109375 C 64.230469 44.804688 62.039062 45.542969 60 45.796875 C 57.257812 46.136719 53.75 45.859375 49.613281 44.976562 C 46.160156 44.242188 40.492188 42.804688 38.976562 42.285156 C 38.570312 42.140625 38.570312 42.140625 38.714844 42.082031 C 38.976562 41.976562 40.292969 41.65625 40.96875 41.535156 C 44.003906 40.980469 48.703125 40.726562 52.917969 40.886719 Z M 37.457031 43.691406 C 39.496094 44.453125 43.367188 45.417969 48.269531 46.390625 C 54.398438 47.601562 58.347656 47.832031 61.84375 47.183594 C 63.09375 46.957031 64.285156 46.601562 65.078125 46.226562 C 65.609375 45.972656 65.589844 45.902344 65.351562 47.074219 C 64.578125 50.832031 63.351562 53.285156 61.203125 55.382812 C 59.757812 56.78125 58.269531 57.753906 54.835938 59.546875 C 52.773438 60.617188 51.664062 61.269531 50.820312 61.90625 L 50.464844 62.171875 L 49.910156 62.070312 C 48.917969 61.886719 48.5625 61.859375 46.863281 61.800781 L 45.191406 61.75 L 45.074219 61.300781 C 44.878906 60.511719 44.457031 59.75 43.800781 58.980469 C 43.644531 58.789062 42.871094 57.988281 42.089844 57.199219 C 40.242188 55.324219 39.425781 54.367188 38.617188 53.125 C 37.097656 50.808594 36.28125 48.347656 36.210938 45.910156 C 36.183594 44.933594 36.242188 44.488281 36.464844 43.933594 C 36.628906 43.53125 36.714844 43.410156 36.8125 43.449219 C 36.855469 43.46875 37.148438 43.578125 37.457031 43.691406 Z M 118.363281 45.078125 C 121.246094 45.417969 123.738281 46.394531 125.523438 47.882812 C 126.53125 48.726562 127.703125 50.117188 128.457031 51.359375 C 129.207031 52.605469 129.671875 53.59375 130.953125 56.699219 C 132.101562 59.480469 132.394531 60.140625 133.117188 61.605469 C 134.148438 63.691406 135.085938 65.140625 136.453125 66.78125 C 138.082031 68.730469 140.03125 70.535156 142.660156 72.535156 C 143.128906 72.886719 143.59375 73.28125 143.691406 73.40625 C 143.792969 73.53125 143.984375 73.742188 144.113281 73.871094 C 144.472656 74.230469 146.335938 75.542969 147.945312 76.566406 C 148.09375 76.664062 148.152344 76.722656 148.09375 76.722656 C 147.847656 76.722656 145.339844 76.230469 142.867188 75.695312 C 140.105469 75.101562 139.144531 74.976562 137.308594 74.976562 C 135.953125 74.976562 135.761719 74.992188 133.707031 75.257812 C 133.015625 75.351562 132.109375 75.445312 131.699219 75.476562 C 130.085938 75.585938 128.839844 75.335938 127.390625 74.617188 C 126.164062 74.015625 125.027344 73.183594 123.316406 71.660156 C 123.023438 71.398438 122.425781 70.867188 121.988281 70.472656 C 119.4375 68.203125 118.132812 67.386719 116.433594 67.023438 C 116.335938 67 116.179688 66.8125 115.730469 66.167969 C 114.746094 64.761719 113.589844 63.3125 112.539062 62.15625 C 111.28125 60.777344 109.574219 59.398438 107.734375 58.265625 C 106.777344 57.683594 106.796875 57.691406 106.734375 57.503906 C 106.707031 57.414062 106.3125 56.3125 105.863281 55.046875 C 105.40625 53.785156 105.042969 52.746094 105.050781 52.742188 C 105.0625 52.734375 105.3125 52.691406 105.609375 52.648438 L 106.15625 52.570312 L 107.40625 53.273438 C 108.09375 53.667969 109.089844 54.226562 109.617188 54.523438 C 110.738281 55.160156 112.625 56.121094 113.632812 56.570312 C 114.761719 57.078125 115.453125 57.335938 117.257812 57.945312 C 118.527344 58.371094 119.132812 58.601562 119.632812 58.847656 C 120.507812 59.277344 120.695312 59.417969 120.734375 59.652344 C 120.863281 60.445312 121.085938 60.871094 121.488281 61.082031 C 121.667969 61.179688 122.050781 61.179688 122.226562 61.082031 C 122.769531 60.804688 122.875 60.078125 122.488281 59.3125 L 122.289062 58.921875 L 122.390625 58.253906 C 122.53125 57.292969 122.523438 56.914062 122.371094 56.585938 C 122.144531 56.089844 121.78125 55.921875 120.757812 55.832031 C 119.5 55.722656 119.007812 55.496094 118.570312 54.839844 C 118.328125 54.476562 118.160156 54.015625 117.953125 53.191406 C 117.75 52.355469 117.601562 52.035156 117.3125 51.832031 C 117.125 51.703125 117.074219 51.6875 116.742188 51.695312 C 116.40625 51.695312 116.324219 51.710938 115.890625 51.914062 C 115.363281 52.15625 114.894531 52.3125 114.796875 52.273438 C 114.761719 52.257812 114.703125 52.066406 114.65625 51.835938 C 114.523438 51.09375 114.269531 50.691406 113.777344 50.433594 C 113.085938 50.070312 112.292969 50.082031 109.832031 50.503906 C 108.898438 50.667969 107.917969 50.832031 107.648438 50.875 L 107.164062 50.945312 L 106.1875 50.449219 C 105.652344 50.179688 104.945312 49.855469 104.625 49.722656 C 104.09375 49.511719 104.035156 49.480469 103.988281 49.347656 C 103.914062 49.097656 103.660156 47.773438 103.644531 47.519531 L 103.628906 47.28125 L 104.996094 46.941406 C 107.457031 46.324219 110.621094 45.628906 112.15625 45.371094 C 113.046875 45.214844 114.285156 45.0625 115.066406 45.003906 C 115.867188 44.949219 117.570312 44.984375 118.363281 45.078125 Z M 102.054688 47.867188 C 102.066406 47.941406 102.089844 48.042969 102.101562 48.09375 C 102.117188 48.148438 102.191406 48.367188 102.273438 48.589844 C 102.355469 48.804688 102.414062 48.996094 102.394531 49.011719 C 102.378906 49.023438 102.246094 49.011719 102.085938 48.980469 C 101.621094 48.894531 100.699219 48.867188 100.226562 48.929688 C 99.863281 48.976562 99.394531 49.105469 99.101562 49.242188 C 99.050781 49.265625 98.980469 49.207031 98.871094 49.054688 C 98.785156 48.933594 98.71875 48.820312 98.71875 48.796875 C 98.71875 48.714844 101.644531 47.75 101.914062 47.742188 C 101.996094 47.734375 102.03125 47.769531 102.054688 47.867188 Z M 97.601562 49.589844 C 97.707031 49.71875 97.84375 49.890625 97.898438 49.976562 L 98.011719 50.136719 L 97.890625 50.410156 C 97.640625 50.964844 97.601562 51.453125 97.765625 52.089844 C 97.824219 52.3125 97.847656 52.507812 97.824219 52.527344 C 97.761719 52.59375 96.863281 52.683594 96.277344 52.683594 C 95.253906 52.691406 94.652344 52.457031 94.535156 52.007812 C 94.429688 51.582031 95.035156 50.800781 95.964844 50.164062 C 96.425781 49.847656 97.265625 49.363281 97.363281 49.363281 C 97.390625 49.363281 97.503906 49.464844 97.601562 49.589844 Z M 101.378906 50.800781 C 101.8125 50.855469 102.257812 50.9375 102.636719 51.042969 C 102.804688 51.085938 102.859375 51.128906 102.914062 51.257812 C 103.011719 51.488281 103 51.5625 102.878906 51.589844 C 102.816406 51.601562 102.300781 51.703125 101.738281 51.808594 C 101.171875 51.917969 100.667969 52.015625 100.625 52.027344 C 100.558594 52.046875 100.488281 51.941406 100.277344 51.527344 C 100.132812 51.234375 100.011719 50.976562 100.011719 50.949219 C 100.011719 50.886719 100.136719 50.855469 100.5 50.808594 C 100.925781 50.75 100.902344 50.75 101.378906 50.800781 Z M 112.890625 51.71875 C 113.058594 51.773438 113.0625 51.785156 113.164062 52.3125 C 113.257812 52.816406 113.425781 53.144531 113.71875 53.410156 C 114.007812 53.667969 114.296875 53.773438 114.734375 53.773438 C 115.140625 53.773438 115.535156 53.671875 116.027344 53.445312 C 116.429688 53.265625 116.488281 53.273438 116.492188 53.515625 C 116.492188 53.710938 116.765625 54.707031 116.914062 55.054688 C 116.996094 55.25 117.164062 55.554688 117.277344 55.738281 C 117.398438 55.921875 117.488281 56.074219 117.476562 56.074219 C 117.421875 56.074219 115.910156 55.472656 115.296875 55.210938 C 114.402344 54.828125 113.132812 54.226562 112.371094 53.832031 C 111.5 53.375 109.359375 52.1875 109.332031 52.144531 C 109.3125 52.113281 111.328125 51.765625 111.917969 51.699219 C 112.242188 51.65625 112.75 51.667969 112.890625 51.71875 Z M 103.535156 53.136719 C 103.546875 53.203125 103.800781 53.949219 104.09375 54.789062 C 104.382812 55.632812 104.613281 56.332031 104.597656 56.34375 C 104.539062 56.402344 102.902344 55.296875 102.078125 54.640625 C 101.628906 54.28125 101.609375 54.25 101.425781 53.847656 C 101.324219 53.625 101.253906 53.425781 101.261719 53.417969 C 101.296875 53.382812 103.1875 53.015625 103.347656 53.011719 C 103.472656 53.007812 103.503906 53.03125 103.535156 53.136719 Z M 120.851562 57.484375 C 120.851562 57.605469 120.847656 57.605469 120.722656 57.539062 C 120.441406 57.386719 120.4375 57.367188 120.652344 57.367188 C 120.832031 57.367188 120.851562 57.375 120.851562 57.484375 Z M 104.085938 58.117188 C 104.574219 58.410156 105.125 58.730469 105.304688 58.839844 L 105.640625 59.03125 L 106.226562 60.488281 C 106.546875 61.285156 106.824219 61.980469 106.84375 62.023438 C 106.867188 62.089844 106.824219 62.125 106.664062 62.191406 C 106.496094 62.257812 106.09375 62.453125 104.796875 63.105469 C 104.75 63.128906 102.984375 57.65625 102.984375 57.484375 C 102.984375 57.464844 103.03125 57.480469 103.09375 57.519531 C 103.152344 57.558594 103.597656 57.832031 104.085938 58.117188 Z M 108.679688 61.007812 C 108.972656 61.230469 109.210938 61.429688 109.210938 61.441406 C 109.210938 61.492188 108.339844 61.640625 108.300781 61.597656 C 108.253906 61.546875 107.871094 60.539062 107.871094 60.476562 C 107.871094 60.402344 108.050781 60.523438 108.679688 61.007812 Z M 110.144531 62.917969 L 110.285156 62.945312 L 110.101562 63.128906 C 110 63.230469 109.757812 63.441406 109.554688 63.597656 C 109.289062 63.8125 109.1875 63.871094 109.15625 63.824219 C 109.054688 63.660156 108.867188 63.058594 108.902344 63.019531 C 108.996094 62.933594 109.871094 62.859375 110.144531 62.917969 Z M 107.707031 64.117188 C 107.851562 64.445312 107.964844 64.738281 107.964844 64.761719 C 107.964844 64.792969 107.828125 64.910156 107.664062 65.03125 C 107.5 65.152344 107.027344 65.511719 106.613281 65.832031 C 106.199219 66.15625 105.84375 66.421875 105.824219 66.421875 C 105.796875 66.421875 105.40625 65.09375 105.296875 64.625 C 105.277344 64.542969 105.367188 64.480469 105.84375 64.226562 C 106.636719 63.804688 107.308594 63.492188 107.386719 63.507812 C 107.425781 63.515625 107.566406 63.789062 107.707031 64.117188 Z M 43.527344 64.007812 C 43.527344 64.230469 43.503906 64.457031 43.480469 64.507812 C 43.453125 64.558594 43.308594 64.664062 43.15625 64.738281 C 42.199219 65.222656 40.765625 66.40625 39.4375 67.796875 L 38.972656 68.28125 L 38.363281 68.535156 C 37.046875 69.074219 35.886719 69.445312 35.160156 69.554688 C 34.957031 69.582031 34.953125 69.582031 34.851562 69.382812 C 34.613281 68.910156 34.175781 68.527344 33.683594 68.359375 C 33.382812 68.261719 32.867188 68.253906 32.5625 68.359375 C 32.082031 68.519531 31.648438 69.066406 31.648438 69.515625 C 31.648438 70.207031 32.207031 70.714844 33.179688 70.894531 C 33.488281 70.957031 33.492188 70.957031 33.480469 71.105469 C 33.449219 71.488281 32.984375 72.246094 32.402344 72.84375 C 31.726562 73.542969 30.964844 74.085938 29.390625 74.972656 C 28.207031 75.636719 28.003906 75.78125 27.84375 76.066406 C 27.675781 76.351562 27.652344 76.554688 27.738281 76.988281 C 27.8125 77.394531 27.820312 77.359375 27.621094 78.25 C 27.449219 79.023438 27.75 79.601562 28.371094 79.671875 C 29.101562 79.761719 30.851562 78.710938 32.726562 77.050781 C 33.503906 76.363281 35.40625 74.417969 36.628906 73.054688 C 38.441406 71.039062 39.335938 70.050781 39.679688 69.703125 C 40.003906 69.371094 40.015625 69.363281 40.726562 69.09375 C 41.53125 68.792969 42.257812 68.550781 42.542969 68.5 C 42.722656 68.464844 42.726562 68.472656 42.695312 68.582031 C 42.425781 69.535156 41.894531 71.871094 41.394531 74.261719 L 41.046875 75.945312 L 40.316406 76.730469 C 39.914062 77.160156 39.328125 77.824219 39.011719 78.207031 C 38.6875 78.589844 38.296875 79.039062 38.136719 79.210938 C 37.980469 79.382812 37.789062 79.632812 37.710938 79.761719 C 37.636719 79.898438 37.375 80.269531 37.132812 80.601562 C 35.988281 82.152344 34.976562 83.820312 34.421875 85.058594 C 34.308594 85.304688 34.199219 85.527344 34.175781 85.539062 C 34.152344 85.554688 33.976562 85.585938 33.785156 85.597656 C 33.09375 85.65625 32.144531 86.011719 31.5 86.449219 C 30.890625 86.863281 30.191406 87.625 29.671875 88.433594 C 29.554688 88.617188 29.199219 89.230469 28.878906 89.789062 C 27.402344 92.371094 26.457031 93.355469 24.816406 94.011719 C 23.632812 94.484375 22.472656 94.667969 19 94.925781 C 14.511719 95.261719 11.625 96.0625 8.03125 97.96875 C 7.035156 98.496094 4.683594 99.855469 3.765625 100.429688 C 3.648438 100.503906 3.644531 100.503906 3.714844 100.410156 C 3.753906 100.359375 4.347656 99.710938 5.039062 98.972656 C 8.152344 95.636719 9.574219 93.894531 11.34375 91.261719 C 14.199219 87.003906 15.679688 83.71875 18.382812 75.671875 C 19.320312 72.878906 19.71875 71.839844 20.292969 70.707031 C 21.839844 67.640625 23.40625 66.203125 26.046875 65.4375 C 27.691406 64.960938 30.871094 64.441406 34.570312 64.054688 C 36.886719 63.804688 38.277344 63.722656 41.492188 63.648438 C 42.335938 63.628906 43.140625 63.605469 43.277344 63.605469 L 43.527344 63.59375 Z M 46.953125 63.640625 C 48.382812 63.691406 48.847656 63.726562 48.847656 63.796875 C 48.847656 63.828125 48.628906 64.179688 48.53125 64.308594 C 48.519531 64.316406 48.324219 64.246094 48.09375 64.15625 C 47.4375 63.886719 46.992188 63.820312 46.191406 63.847656 C 45.816406 63.863281 45.457031 63.890625 45.386719 63.910156 C 45.261719 63.9375 45.253906 63.929688 45.253906 63.800781 C 45.253906 63.558594 45.074219 63.574219 46.953125 63.640625 Z M 111.835938 64.082031 C 112.3125 64.65625 113.253906 65.875 113.734375 66.535156 L 114.148438 67.105469 L 113.800781 67.234375 C 113.359375 67.398438 112.910156 67.625 112.539062 67.871094 C 112.179688 68.117188 111.582031 68.710938 111.351562 69.050781 C 111.160156 69.339844 111.164062 69.34375 111.101562 68.839844 C 111.054688 68.472656 110.800781 67.753906 110.269531 66.507812 C 110 65.878906 109.785156 65.34375 109.785156 65.308594 C 109.785156 65.277344 110.011719 65.054688 110.289062 64.824219 C 110.566406 64.589844 110.9375 64.242188 111.117188 64.042969 C 111.296875 63.851562 111.453125 63.691406 111.472656 63.691406 C 111.492188 63.691406 111.652344 63.867188 111.835938 64.082031 Z M 51.15625 64.332031 C 52.382812 64.792969 53.492188 65.710938 53.492188 66.265625 C 53.492188 66.683594 52.761719 66.972656 51.410156 67.085938 C 51.09375 67.113281 50.738281 67.140625 50.617188 67.140625 L 50.402344 67.140625 L 50.328125 66.738281 C 50.277344 66.488281 50.167969 66.171875 50.046875 65.921875 C 49.941406 65.695312 49.851562 65.492188 49.851562 65.460938 C 49.851562 65.332031 50.710938 64.214844 50.808594 64.214844 C 50.835938 64.214844 50.992188 64.269531 51.15625 64.332031 Z M 47.0625 65.488281 C 47.375 65.5625 47.742188 65.726562 47.742188 65.789062 C 47.742188 65.84375 47.335938 66.941406 47.304688 66.972656 C 47.289062 66.992188 46.863281 66.957031 46.355469 66.90625 C 45.851562 66.847656 45.34375 66.804688 45.238281 66.804688 C 44.914062 66.804688 44.914062 66.792969 45.007812 66.1875 C 45.09375 65.679688 45.136719 65.566406 45.277344 65.558594 C 45.304688 65.554688 45.453125 65.523438 45.613281 65.488281 C 46 65.398438 46.695312 65.398438 47.0625 65.488281 Z M 108.929688 66.894531 C 109.492188 68.167969 109.753906 69.003906 109.648438 69.234375 C 109.53125 69.480469 109.023438 69.601562 107.773438 69.671875 C 107.3125 69.703125 106.921875 69.707031 106.90625 69.6875 C 106.867188 69.648438 106.335938 68.261719 106.335938 68.199219 C 106.335938 68.164062 107.089844 67.5 108.253906 66.496094 C 108.425781 66.351562 108.582031 66.238281 108.601562 66.242188 C 108.625 66.25 108.769531 66.546875 108.929688 66.894531 Z M 43.066406 66.835938 C 43.019531 66.871094 42.929688 66.898438 42.863281 66.898438 C 42.753906 66.898438 42.757812 66.890625 42.933594 66.761719 C 43.085938 66.640625 43.125 66.632812 43.140625 66.695312 C 43.148438 66.738281 43.117188 66.804688 43.066406 66.835938 Z M 46.175781 68.359375 C 46.546875 68.398438 46.851562 68.4375 46.867188 68.445312 C 46.878906 68.460938 46.738281 69.015625 46.554688 69.6875 C 46.367188 70.355469 46.195312 70.992188 46.167969 71.101562 C 46.121094 71.277344 45.992188 71.40625 44.957031 72.324219 C 43.476562 73.628906 43.445312 73.65625 43.417969 73.65625 C 43.394531 73.65625 43.445312 73.382812 43.796875 71.785156 C 44.015625 70.792969 44.566406 68.414062 44.605469 68.296875 C 44.628906 68.226562 44.90625 68.242188 46.175781 68.359375 Z M 115.464844 69.078125 C 115.660156 69.382812 115.824219 69.640625 115.824219 69.648438 C 115.824219 69.660156 115.730469 69.683594 115.621094 69.703125 C 115.195312 69.769531 114.65625 69.925781 114.039062 70.164062 C 113.132812 70.511719 112.867188 70.589844 112.527344 70.589844 C 112.152344 70.589844 112.125 70.535156 112.300781 70.175781 C 112.554688 69.660156 113.226562 69.113281 113.984375 68.8125 C 114.292969 68.6875 114.816406 68.546875 115.046875 68.535156 C 115.078125 68.527344 115.265625 68.777344 115.464844 69.078125 Z M 105.300781 69.351562 C 105.460938 69.746094 105.46875 69.726562 105.09375 69.726562 C 104.910156 69.726562 104.753906 69.710938 104.753906 69.691406 C 104.753906 69.660156 105.191406 69.199219 105.226562 69.199219 C 105.230469 69.199219 105.269531 69.269531 105.300781 69.351562 Z M 110.902344 70.6875 C 110.996094 71.492188 111.835938 71.984375 112.875 71.835938 C 113.101562 71.804688 113.695312 71.632812 114.3125 71.425781 C 114.894531 71.230469 115.519531 71.046875 115.703125 71.019531 C 116.066406 70.957031 116.585938 70.992188 116.699219 71.082031 C 116.738281 71.117188 117.179688 71.796875 117.671875 72.601562 C 118.683594 74.234375 118.632812 74.105469 118.429688 74.765625 C 117.601562 77.410156 114.269531 80.214844 110.742188 81.242188 C 107.722656 82.125 104.824219 82.105469 103.058594 81.1875 C 102.617188 80.957031 102.207031 80.566406 102.046875 80.238281 C 101.609375 79.308594 102.148438 77.910156 103.460938 76.582031 C 104.070312 75.96875 104.539062 75.601562 105.738281 74.789062 C 106.871094 74.023438 107.25 73.679688 107.480469 73.214844 C 107.667969 72.839844 107.726562 72.335938 107.632812 71.878906 C 107.566406 71.539062 107.589844 71.5 107.871094 71.5 C 108.097656 71.5 108.921875 71.371094 109.308594 71.277344 C 109.777344 71.164062 110.351562 70.871094 110.59375 70.617188 C 110.710938 70.496094 110.820312 70.410156 110.839844 70.421875 C 110.859375 70.429688 110.886719 70.554688 110.902344 70.6875 Z M 37.03125 70.550781 C 36.949219 70.6875 34.625 73.445312 34.054688 74.085938 C 32.800781 75.484375 31.46875 76.695312 30.402344 77.414062 C 29.886719 77.753906 29.304688 78.085938 29.269531 78.054688 C 29.261719 78.039062 29.273438 77.914062 29.304688 77.769531 C 29.332031 77.625 29.347656 77.339844 29.332031 77.117188 L 29.308594 76.726562 L 29.820312 76.429688 C 31.5625 75.417969 32.203125 74.988281 33.011719 74.277344 C 34.105469 73.324219 34.871094 72.195312 35.054688 71.273438 C 35.125 70.910156 35.097656 70.929688 35.839844 70.785156 C 36.132812 70.726562 36.496094 70.640625 36.652344 70.59375 C 37.003906 70.484375 37.078125 70.472656 37.03125 70.550781 Z M 48.277344 72.851562 C 48.65625 73.152344 49.207031 73.472656 50.355469 74.070312 C 50.910156 74.359375 51.566406 74.71875 51.816406 74.871094 C 53.089844 75.644531 53.980469 76.546875 54.171875 77.265625 C 54.25 77.554688 54.199219 77.597656 53.804688 77.5625 C 53.242188 77.515625 52.53125 77.210938 50.921875 76.332031 C 49.914062 75.78125 49.636719 75.667969 49.300781 75.667969 C 49.03125 75.667969 48.609375 75.882812 48.472656 76.09375 C 48.109375 76.644531 48.246094 77.191406 49.019531 78.207031 C 50.054688 79.566406 50.238281 79.832031 50.445312 80.21875 C 50.679688 80.667969 50.835938 81.167969 50.785156 81.324219 C 50.753906 81.421875 50.730469 81.425781 50.46875 81.398438 C 50.003906 81.347656 49.464844 81.136719 48.203125 80.515625 C 47.542969 80.191406 46.734375 79.804688 46.402344 79.65625 C 46.070312 79.515625 45.785156 79.378906 45.765625 79.359375 C 45.746094 79.335938 45.855469 78.839844 46.019531 78.25 C 46.175781 77.660156 46.527344 76.304688 46.789062 75.234375 C 47.054688 74.167969 47.335938 73.042969 47.417969 72.726562 L 47.566406 72.160156 L 47.789062 72.398438 C 47.90625 72.535156 48.128906 72.734375 48.277344 72.851562 Z M 45.445312 73.984375 C 45.445312 74.167969 44.257812 78.742188 44.1875 78.804688 C 44.179688 78.816406 44.027344 78.78125 43.84375 78.734375 C 43.664062 78.679688 43.285156 78.59375 43.007812 78.535156 C 42.726562 78.480469 42.484375 78.421875 42.464844 78.402344 C 42.449219 78.386719 42.535156 77.890625 42.660156 77.304688 L 42.890625 76.230469 L 43.222656 75.902344 C 43.625 75.5 45.359375 73.945312 45.410156 73.941406 C 45.429688 73.941406 45.445312 73.960938 45.445312 73.984375 Z M 43 80.539062 C 43.332031 80.601562 43.621094 80.671875 43.636719 80.691406 C 43.675781 80.730469 43.398438 82.125 43.335938 82.195312 C 43.304688 82.234375 41.816406 81.6875 41.742188 81.609375 C 41.703125 81.574219 41.917969 80.503906 41.980469 80.394531 C 42.003906 80.351562 42.21875 80.382812 43 80.539062 Z M 39.933594 80.648438 C 39.933594 80.703125 39.914062 80.746094 39.890625 80.746094 C 39.828125 80.746094 39.738281 80.621094 39.777344 80.585938 C 39.839844 80.519531 39.933594 80.558594 39.933594 80.648438 Z M 38.453125 82.105469 C 38.636719 82.25 38.910156 82.4375 39.0625 82.523438 C 39.210938 82.609375 39.351562 82.699219 39.363281 82.722656 C 39.382812 82.746094 39.363281 82.878906 39.332031 83.015625 C 38.890625 84.65625 38.957031 85.757812 39.550781 86.625 C 40.015625 87.304688 40.789062 87.738281 42 88 C 42.109375 88.023438 42.121094 88.046875 42.121094 88.253906 C 42.113281 88.644531 42.226562 88.921875 42.507812 89.226562 C 42.917969 89.671875 43.558594 89.957031 45.039062 90.371094 C 47.488281 91.050781 48.765625 91.671875 49.894531 92.75 C 50.503906 93.332031 50.941406 93.902344 51.242188 94.519531 C 51.515625 95.074219 51.625 95.457031 51.625 95.847656 C 51.625 96.207031 51.542969 96.390625 51.289062 96.621094 C 50.527344 97.3125 48.503906 97.65625 45.5625 97.59375 C 42.53125 97.53125 40.03125 97.097656 37.648438 96.214844 C 35.765625 95.519531 33.839844 94.332031 33.132812 93.441406 L 32.980469 93.25 L 33.113281 92.855469 C 33.238281 92.46875 33.808594 90.964844 34.070312 90.3125 C 34.230469 89.929688 34.253906 89.910156 34.984375 89.703125 C 35.640625 89.515625 36.492188 89.363281 37.707031 89.199219 C 39.351562 88.980469 39.835938 88.835938 40.109375 88.476562 C 40.207031 88.347656 40.246094 88.238281 40.261719 88.03125 C 40.300781 87.511719 40.011719 87.179688 39.191406 86.78125 C 38.507812 86.449219 37.050781 85.953125 36.238281 85.777344 C 36.058594 85.734375 35.957031 85.6875 35.957031 85.644531 C 35.957031 85.527344 36.769531 83.972656 37.21875 83.226562 C 37.667969 82.484375 38.074219 81.851562 38.105469 81.847656 C 38.113281 81.847656 38.273438 81.96875 38.453125 82.105469 Z M 42.144531 83.839844 C 42.601562 84.011719 42.992188 84.171875 43.011719 84.183594 C 43.0625 84.242188 42.734375 86.253906 42.652344 86.332031 C 42.613281 86.375 41.894531 86.160156 41.632812 86.023438 C 41.117188 85.765625 40.980469 85.535156 40.980469 84.960938 C 40.980469 84.648438 41.140625 83.671875 41.210938 83.5625 C 41.246094 83.5 41.273438 83.507812 42.144531 83.839844 Z M 45.363281 85.210938 C 45.835938 85.480469 46.113281 85.699219 46.113281 85.804688 C 46.113281 85.90625 45.855469 86.046875 45.445312 86.179688 C 45.082031 86.292969 44.3125 86.4375 44.269531 86.394531 C 44.25 86.375 44.503906 85.046875 44.558594 84.875 C 44.585938 84.796875 44.789062 84.878906 45.363281 85.210938 Z M 36.222656 87.3125 C 36.746094 87.449219 37.554688 87.691406 37.601562 87.734375 C 37.621094 87.753906 37.28125 87.808594 36.851562 87.855469 C 36.414062 87.898438 35.824219 87.976562 35.542969 88.027344 C 35.257812 88.074219 35.015625 88.105469 35.003906 88.09375 C 34.984375 88.074219 35.222656 87.398438 35.296875 87.242188 C 35.339844 87.164062 35.378906 87.160156 35.589844 87.183594 C 35.730469 87.203125 36.011719 87.261719 36.222656 87.3125 Z M 68.421875 96.285156 C 68.699219 96.417969 68.929688 96.671875 69.011719 96.933594 C 69.066406 97.125 69.082031 97.667969 69.035156 97.71875 C 68.988281 97.761719 68.144531 97.445312 67.804688 97.253906 C 67.484375 97.078125 67.097656 96.707031 67.097656 96.578125 C 67.097656 96.472656 67.324219 96.277344 67.5 96.222656 C 67.789062 96.136719 68.164062 96.167969 68.421875 96.285156 Z M 99.953125 101.171875 C 100.328125 101.695312 100.636719 102.578125 100.636719 103.128906 C 100.628906 103.808594 100.308594 104.515625 99.855469 104.847656 C 99.335938 105.222656 98.957031 104.824219 98.921875 103.851562 C 98.894531 103.320312 98.96875 102.859375 99.179688 102.222656 C 99.324219 101.78125 99.699219 100.960938 99.761719 100.960938 C 99.789062 100.960938 99.875 101.058594 99.953125 101.171875 Z M 99.953125 101.171875 " fill-opacity="1" fill-rule="nonzero"/></g></svg>